<?xml version="1.0" encoding="UTF-8" standalone="no"?>
<!DOCTYPE svg PUBLIC "-//W3C//DTD SVG 1.1//EN" "http://www.w3.org/Graphics/SVG/1.1/DTD/svg11.dtd">
<svg width="100%" height="100%" viewBox="0 0 216 41" version="1.1" xmlns="http://www.w3.org/2000/svg" xmlns:xlink="http://www.w3.org/1999/xlink" xml:space="preserve" xmlns:serif="http://www.serif.com/" style="fill-rule:evenodd;clip-rule:evenodd;stroke-linejoin:round;stroke-miterlimit:2;">
    <g id="Artboard1" transform="matrix(0.156695,0,0,0.135756,-454.744,-21.8882)">
        <rect x="2902.09" y="161.232" width="1378.47" height="302.013" style="fill:none;"/>
        <clipPath id="_clip1">
            <rect x="2902.09" y="161.232" width="1378.47" height="302.013"/>
        </clipPath>
        <g clip-path="url(#_clip1)">
            <g transform="matrix(6.38181,0,0,7.36617,2902.09,161.232)">
                <path d="M89.048,28.776C89.443,30.545 90.292,31.935 91.596,32.947C92.899,33.958 94.444,34.463 96.229,34.463C98.52,34.463 100.487,33.705 102.13,32.188L105.021,36.383C103.836,37.473 102.474,38.318 100.933,38.919C99.393,39.519 97.706,39.819 95.873,39.819C93.456,39.819 91.272,39.239 89.321,38.077C87.369,36.916 85.841,35.34 84.735,33.35C83.629,31.359 83.076,29.186 83.076,26.832C83.076,24.447 83.597,22.258 84.64,20.268C85.683,18.277 87.132,16.701 88.989,15.54C90.845,14.378 92.927,13.798 95.234,13.798C97.777,13.798 99.973,14.347 101.822,15.445C103.67,16.543 105.077,18.064 106.04,20.007C107.004,21.95 107.486,24.17 107.486,26.666C107.486,27.425 107.439,28.128 107.344,28.776L89.048,28.776ZM153.083,28.776C153.478,30.545 154.327,31.935 155.631,32.947C156.934,33.958 158.479,34.463 160.264,34.463C162.555,34.463 164.522,33.705 166.165,32.188L169.056,36.383C167.871,37.473 166.509,38.318 164.968,38.919C163.428,39.519 161.741,39.819 159.908,39.819C157.491,39.819 155.307,39.239 153.356,38.077C151.404,36.916 149.876,35.34 148.77,33.35C147.664,31.359 147.111,29.186 147.111,26.832C147.111,24.447 147.632,22.258 148.675,20.268C149.718,18.277 151.167,16.701 153.024,15.54C154.88,14.378 156.962,13.798 159.269,13.798C161.812,13.798 164.008,14.347 165.857,15.445C167.705,16.543 169.112,18.064 170.075,20.007C171.039,21.95 171.521,24.17 171.521,26.666C171.521,27.425 171.474,28.128 171.379,28.776L153.083,28.776ZM193.087,14.319L198.348,14.319L198.348,39.156L193.063,39.156L192.637,36.241C191.689,37.331 190.575,38.188 189.295,38.812C188.016,39.436 186.586,39.748 185.006,39.748C182.762,39.748 180.681,39.168 178.761,38.006C176.841,36.845 175.321,35.273 174.199,33.29C173.077,31.307 172.516,29.131 172.516,26.761C172.516,24.391 173.081,22.215 174.211,20.232C175.34,18.249 176.861,16.677 178.773,15.516C180.685,14.355 182.762,13.774 185.006,13.774C186.617,13.774 188.067,14.09 189.355,14.722C190.642,15.354 191.76,16.223 192.708,17.329L193.087,14.319ZM128.223,4.2L134.313,4.2L134.313,39.156L129.028,39.156L128.602,36.241C127.654,37.331 126.54,38.188 125.26,38.812C123.981,39.436 122.551,39.748 120.971,39.748C118.727,39.748 116.646,39.168 114.726,38.006C112.806,36.845 111.286,35.273 110.164,33.29C109.042,31.307 108.481,29.131 108.481,26.761C108.481,24.391 109.046,22.215 110.176,20.232C111.305,18.249 112.826,16.677 114.738,15.516C116.65,14.355 118.727,13.774 120.971,13.774C123.878,13.774 126.295,14.793 128.223,16.831L128.223,4.2ZM83.502,39.156L76.251,39.156L71.037,27.922C70.342,27.954 69.812,27.97 69.449,27.97L63.88,27.97L63.88,39.156L57.457,39.156L57.457,5.859L71.203,5.859C73.462,5.859 75.457,6.321 77.187,7.245C78.917,8.169 80.26,9.465 81.216,11.132C82.171,12.798 82.649,14.722 82.649,16.902C82.649,19.098 82.167,20.983 81.204,22.555C80.24,24.127 78.905,25.363 77.199,26.263L83.502,39.156ZM144.528,39.156L138.508,39.156L138.508,3.655L144.528,3.655L144.528,39.156ZM203.065,39.156L203.065,19.865L199.794,19.865L199.794,14.295L203.065,14.295L203.065,11.238C203.065,5.582 206.201,2.754 212.473,2.754C213.042,2.754 213.421,2.762 213.611,2.778L214.369,2.801L214.369,8.11C213.547,8.078 213.002,8.063 212.734,8.063C211.486,8.063 210.569,8.386 209.985,9.034C209.4,9.682 209.108,10.654 209.108,11.949L209.108,14.295L214.298,14.295L214.298,19.865L209.131,19.865L209.131,39.156L203.065,39.156ZM185.527,34.013C186.839,34.013 188.039,33.701 189.129,33.077C190.22,32.453 191.081,31.592 191.713,30.494C192.345,29.396 192.661,28.159 192.661,26.785C192.661,25.41 192.345,24.166 191.713,23.052C191.081,21.938 190.22,21.065 189.129,20.433C188.039,19.802 186.839,19.486 185.527,19.486C184.232,19.486 183.047,19.802 181.972,20.433C180.898,21.065 180.053,21.938 179.436,23.052C178.82,24.166 178.512,25.41 178.512,26.785C178.512,28.159 178.82,29.4 179.436,30.506C180.053,31.612 180.894,32.473 181.96,33.089C183.027,33.705 184.216,34.013 185.527,34.013ZM121.492,34.013C122.804,34.013 124.004,33.701 125.094,33.077C126.185,32.453 127.046,31.592 127.678,30.494C128.31,29.396 128.626,28.159 128.626,26.785C128.626,25.41 128.31,24.166 127.678,23.052C127.046,21.938 126.185,21.065 125.094,20.433C124.004,19.802 122.804,19.486 121.492,19.486C120.197,19.486 119.012,19.802 117.937,20.433C116.863,21.065 116.018,21.938 115.401,23.052C114.785,24.166 114.477,25.41 114.477,26.785C114.477,28.159 114.785,29.4 115.401,30.506C116.018,31.612 116.859,32.473 117.925,33.089C118.992,33.705 120.181,34.013 121.492,34.013ZM95.471,19.035C93.891,19.035 92.532,19.489 91.394,20.398C90.257,21.306 89.49,22.566 89.095,24.178L101.656,24.178C101.293,22.535 100.578,21.267 99.511,20.374C98.445,19.482 97.098,19.035 95.471,19.035ZM159.506,19.035C157.926,19.035 156.567,19.489 155.429,20.398C154.292,21.306 153.525,22.566 153.13,24.178L165.691,24.178C165.328,22.535 164.613,21.267 163.546,20.374C162.48,19.482 161.133,19.035 159.506,19.035ZM63.88,22.306L70.634,22.306C71.708,22.306 72.664,22.077 73.501,21.618C74.339,21.16 74.987,20.524 75.445,19.711C75.903,18.897 76.132,17.969 76.132,16.926C76.132,15.852 75.895,14.919 75.421,14.13C74.947,13.34 74.295,12.735 73.466,12.317C72.636,11.898 71.7,11.689 70.658,11.689L63.88,11.689L63.88,22.306Z" style="fill:rgb(240,28,37);fill-rule:nonzero;"/>
            </g>
            <g transform="matrix(-1.17428,-0.297726,-0.25794,1.35541,3394.74,27.5293)">
                <path d="M107,343C103.386,295.037 99.406,252.598 117,226C138.087,194.121 160.09,175.385 182.403,165.411C247.252,136.425 314.728,181.455 370,193C296.831,275.068 293.076,227.106 131.565,346.854C127.929,349.545 123.525,350.997 119.001,350.997C119,351 119,351 119,351C125.882,272.774 201.46,215.259 288.46,203.259C195.46,202.259 125.867,250.016 107,343" style="fill:rgb(240,28,37);"/>
            </g>
        </g>
    </g>
</svg>
