<?xml version="1.0" encoding="UTF-8" standalone="no"?>
<!DOCTYPE svg PUBLIC "-//W3C//DTD SVG 1.1//EN" "http://www.w3.org/Graphics/SVG/1.1/DTD/svg11.dtd">
<svg width="100%" height="100%" viewBox="0 0 216 41" version="1.1" xmlns="http://www.w3.org/2000/svg" xmlns:xlink="http://www.w3.org/1999/xlink" xml:space="preserve" xmlns:serif="http://www.serif.com/" style="fill-rule:evenodd;clip-rule:evenodd;stroke-linejoin:round;stroke-miterlimit:2;">
    <g id="Artboard1" transform="matrix(0.156695,0,0,0.135756,-454.744,-21.8882)">
        <rect x="2902.09" y="161.232" width="1378.47" height="302.013" style="fill:none;"/>
        <clipPath id="_clip1">
            <rect x="2902.09" y="161.232" width="1378.47" height="302.013"/>
        </clipPath>
        <g clip-path="url(#_clip1)">
            <g transform="matrix(1.04747,0,0,1.20904,2857.12,-31.2723)">
                <g transform="matrix(0.927598,0,0,0.927598,5.26878,26.7426)">
                    <text x="392px" y="400px" style="font-family:'CocoSharpTrial-Bold', 'CocoSharp Trial';font-weight:700;font-size:311.318px;fill:rgb(240,28,37);">R<tspan x="575.211px 742.077px 928.868px 995.802px 1162.67px 1349.3px " y="400px 400px 400px 400px 400px 400px ">edleaf</tspan></text>
                </g>
                <g transform="matrix(-1.12106,-0.24625,-0.24625,1.12106,513.257,48.635)">
                    <path d="M107,343C103.386,295.037 99.406,252.598 117,226C138.087,194.121 160.09,175.385 182.403,165.411C247.252,136.425 314.728,181.455 370,193C296.831,275.068 293.076,227.106 131.565,346.854C127.929,349.545 123.525,350.997 119.001,350.997C119,351 119,351 119,351C125.882,272.774 201.46,215.259 288.46,203.259C195.46,202.259 125.867,250.016 107,343" style="fill:rgb(240,28,37);"/>
                </g>
            </g>
        </g>
    </g>
</svg>
